PathFileType	4	(X/Y/Z)	RBDS016\RBDS016runT35.trc
DataRate	CameraRate	NumFrames	NumMarkers	Units	OrigDataRate	OrigDataStartFrame	OrigNumFrames
150.000000	150.000000	4	33	mm	150.000000	3937	4500
Frame#	Time	L.ASIS			L.Heel.Bottom			L.Heel.Lateral			L.Heel.Top			L.Iliac.Crest			L.MT1			L.MT5			L.PSIS			L.Shank.Bottom.Lateral			L.Shank.Bottom.Medial			L.Shank.Top.Lateral			L.Shank.Top.Medial			L.Thigh.Bottom.Lateral			L.Thigh.Bottom.Medial			L.Thigh.Top.Lateral			L.Thigh.Top.Medial			R.ASIS			R.ASY			R.Heel.Bottom			R.Heel.Lateral			R.Heel.Top			R.Iliac.Crest			R.MT1			R.MT5			R.PSIS			R.Shank.Bottom.Lateral			R.Shank.Bottom.Medial			R.Shank.Top.Lateral			R.Shank.Top.Medial			R.Thigh.Bottom.Lateral			R.Thigh.Bottom.Medial			R.Thigh.Top.Lateral			R.Thigh.Top.Medial			
		X1	Y1	Z1	X2	Y2	Z2	X3	Y3	Z3	X4	Y4	Z4	X5	Y5	Z5	X6	Y6	Z6	X7	Y7	Z7	X8	Y8	Z8	X9	Y9	Z9	X10	Y10	Z10	X11	Y11	Z11	X12	Y12	Z12	X13	Y13	Z13	X14	Y14	Z14	X15	Y15	Z15	X16	Y16	Z16	X17	Y17	Z17	X18	Y18	Z18	X19	Y19	Z19	X20	Y20	Z20	X21	Y21	Z21	X22	Y22	Z22	X23	Y23	Z23	X24	Y24	Z24	X25	Y25	Z25	X26	Y26	Z26	X27	Y27	Z27	X28	Y28	Z28	X29	Y29	Z29	X30	Y30	Z30	X31	Y31	Z31	X32	Y32	Z32	X33	Y33	Z33	

3938	26.24666666666667	2469.137340248482	935.9724415260581	941.1579523574123	1793.831846510078	397.1770954219299	1038.765501932608	1807.114750856032	382.8245293287604	989.5306341411093	1839.937660806345	400.5467345413585	1025.895858705709	2414.347395819467	1024.815137704626	895.8401992114767	1871.296284231251	190.5167446959095	1030.117094909399	1826.977746853371	232.2869128675101	940.9982261468858	2290.66467296026	1005.668587761539	1010.258827350989	1919.798225826781	402.7520196864263	956.7357455505633	1918.764626104128	419.5082475786962	1009.760999773269	1983.806169302353	450.0016282347294	944.103453013213	1983.901061351876	466.0941847187307	995.2844267729963	2249.082436905481	598.6914727769595	896.5520519896072	2199.929230046613	625.1014884649519	943.6999303376076	2285.832054386016	700.3789780505973	877.7016640635849	2237.098223000483	725.7202661611285	922.2733746313121	2466.389434496317	953.9992714389929	1160.266213191318	2749.788572343551	173.9280271020974	1114.848254136666	2617.458551425353	44.06018450331081	1054.184261052107	2626.153811916089	62.42758645198454	1105.136772464938	2599.489335914621	91.80436490623491	1068.59743281137	2397.491211194387	1026.633908759032	1209.585905309007	2792.245950981464	175.315388443322	1072.607431270646	2766.781180306659	113.0468772446608	1163.565244437492	2292.344321131401	998.3057436163524	1109.537310280776	2604.799518073146	193.4292059801644	1148.104867989027	2571.118090632522	191.3222798544062	1109.184834600949	2570.090261914179	267.5811291823373	1171.180287596632	2536.512077681894	261.6575886660674	1129.811929138625	2471.354071309622	590.9493456444354	1216.094786253877	2419.213891802548	574.4188410300033	1168.217721910109	2421.153994958799	688.1395581805563	1234.584718221058	2372.913173508648	672.2201340953662	1189.469517135966	
3939	26.25333333333333	2469.70154370722	933.7021747673533	940.7493996746813	1796.284930862059	411.1903895195606	1038.028160495315	1808.929393374797	396.8170124055825	988.6087831873773	1842.541895114188	412.7182643691503	1025.067202629986	2411.65895752228	1022.774727303545	894.947063173553	1865.029320333421	201.4463449895011	1026.952696015551	1822.435106518333	246.2273653610598	938.3248988999018	2290.727797308589	1000.90211976206	1010.612602230024	1922.573831785053	411.5869742734111	955.5155709650971	1922.455445776188	427.8558312428119	1008.730560400678	1988.664298897302	455.8635945571818	943.096443350074	1989.665995672697	471.467642319438	994.4301763702597	2255.681595605292	591.5027096422485	895.7248318542571	2205.825222567348	617.1091824998506	942.5781090098657	2290.597747841129	693.7842744295513	876.803990077933	2241.039505387127	718.3766369856818	920.9703915089772	2466.258991066905	950.3072199614124	1160.212641815154	2743.913825102915	168.8025870507414	1112.608023295346	2610.677674784167	40.39713833045442	1051.809155311621	2619.471606872094	58.69587152551239	1102.783676372726	2593.272462179443	88.26233511885685	1066.168194174315	2397.467571275067	1021.728871185743	1210.245850311858	2786.306230160163	169.6761738399562	1070.361034723282	2760.144936816981	107.8551844873666	1161.28715135835	2291.838445985049	993.224581862581	1110.075154907981	2599.793729921902	189.3061605432357	1145.996111781414	2565.901527458266	187.507992730031	1107.22057546493	2566.104511030574	263.7991333656059	1169.185641063277	2532.226935086935	258.1577910813956	1127.995327973239	2470.500683001053	588.0464195370012	1214.56316071487	2418.219701326399	571.4536840861178	1166.976960000849	2420.410156836809	685.2725453218463	1233.240246169038	2372.064946565611	669.2803666738562	1188.337964372125	
3940	26.26	2470.208204532063	930.8149145863666	940.3782364510653	1800.504587201572	424.5320388464788	1037.2219386423	1812.505234318685	410.1753404513804	987.59335791689	1846.829538358065	424.1899414954198	1024.13844662	2409.205412190755	1019.923479837893	894.0121269204977	1860.254330175645	212.0394037841605	1023.577748437034	1819.551723224255	259.7882922254971	935.4981229793279	2290.770032138073	995.2655677477717	1010.826870729674	1926.799244375982	419.7719864101438	954.1868448470748	1927.570007969739	435.446946830789	1007.602474969072	1994.825925331397	460.9729921742313	942.0155405288292	1996.704708618564	475.9897010952843	993.5134411950506	2262.319455754754	583.8911969810805	894.9226577477336	2211.866849593288	608.5730991040245	941.6408303812691	2295.206187398348	686.7879053390067	875.9947508834342	2244.989205619236	710.5060394788539	919.9350259533819	2466.159517489342	946.5502866737054	1160.198213785493	2736.093069034085	161.8019971742305	1110.227488773721	2600.65643963195	36.53452744397277	1049.658202063683	2609.810417035079	54.7503928523432	1100.565286402375	2584.476798222849	84.65394970626789	1063.764844086068	2397.35614858824	1016.738229342113	1210.846149260303	2778.35519937341	161.5518629534112	1067.966493133683	2750.919184330271	100.8131400513807	1159.032824816767	2291.199722069865	987.5757940695121	1110.48091188184	2593.03750646764	184.3917489136637	1143.881021388163	2558.879700993964	183.1637832552628	1105.326232885963	2560.891221846839	259.4629175572965	1167.238990875087	2526.623126162686	254.3406688941464	1126.301213070335	2470.333422515236	585.0969382928873	1212.867459376215	2417.760642104321	568.2094220919886	1165.899723032645	2420.276304609728	682.2863264654709	1231.80857887858	2371.634841283559	665.9957864892483	1187.442335049489	
3941	26.26666666666667	2470.65049101705	927.2883878629916	940.0503797335564	1806.402062331363	437.0464451037405	1036.333578514371	1817.782908372775	422.753082206993	986.4751367931703	1852.703821014415	434.8331978305436	1023.119813975638	2407.10151268227	1016.190917954306	893.0371907999405	1857.01995181719	222.2125893154461	1020.009692332984	1818.389256006654	272.8444972360847	932.5203126624417	2290.776407489762	988.8103759082456	1010.81902439856	1932.423890320857	427.2139829789454	952.7496115153868	1934.039356276086	442.2265804761359	1006.364171218864	2002.236208422873	465.256340193439	940.8450080374917	2004.942897463531	479.6177169553811	992.5034043482927	2268.953390186816	575.9402704160889	894.119204808763	2218.022246265639	599.571435074983	940.8708742037685	2299.631086817602	679.468004091519	875.2660105466728	2248.925580583316	702.1833431805993	919.1651117132503	2466.103629382678	942.7550641488866	1160.233649234577	2726.572199840989	153.2183727985791	1107.603413633507	2587.757114595138	32.68834649011085	1047.70151948912	2597.553412900973	50.81619075213198	1098.434286799615	2573.445464622608	81.15252094273934	1061.340785167689	2397.094378381133	1011.661296979578	1211.341818766132	2768.610152351432	151.2835544171556	1065.314100130467	2739.437887896928	92.28396057602382	1156.731637834165	2290.42004596988	981.4064871164861	1110.660626189095	2584.805339246483	178.7939171773949	1141.704975683136	2550.309219010387	178.3807113954892	1103.473096855902	2554.636202299373	254.6199634213331	1165.333412186054	2519.881234943017	250.2408979343368	1124.73880934863	2470.664028184134	581.9775766319705	1211.104492381316	2417.678936486788	564.6476264104725	1164.985333600866	2420.59542104568	679.0724039908782	1230.392630816376	2371.506422021201	662.3442278686364	1186.786568166872	
